# xmcd CD database file
#
# Track frame offsets:
#	150
#	29392
#	71946
#	114441
#	136506
#	178717
#
# Disc length: 3104 seconds
#
# Revision: 0
# Processed by: cddbd v1.5.2PL0 Copyright (c) Steve Scherf et al.
# Submitted via: CDex 1.51
#
DISCID=4d0c1e06
DTITLE=Joe Morris Quartet - Beautiful Existence
DYEAR=2006
DGENRE=Jazz
TTITLE0=Smear Spring
TTITLE1=Some Good
TTITLE2=Knew Something
TTITLE3=Real Reason
TTITLE4=King Cobra
TTITLE5=Beautiful Existence
EXTD=YEAR: 2006
EXTT0=
EXTT1=
EXTT2=
EXTT3=
EXTT4=
EXTT5=
PLAYORDER=
